<svg width="86" height="32" viewBox="0 0 86 32" fill="none" xmlns="http://www.w3.org/2000/svg">
<circle cx="15" cy="15.5" r="15" fill="#2E80CE"/>
<circle cx="19" cy="19.5" r="8" fill="white"/>
<path d="M41.1499 13.788C39.8419 13.788 38.8219 13.512 38.0899 12.96C37.3699 12.408 36.9919 11.646 36.9559 10.674H38.8999C38.9239 11.034 39.1099 11.364 39.4579 11.664C39.8059 11.964 40.3759 12.114 41.1679 12.114C41.8399 12.114 42.3679 11.982 42.7519 11.718C43.1359 11.454 43.3279 11.124 43.3279 10.728C43.3279 10.368 43.1839 10.086 42.8959 9.882C42.6199 9.666 42.1459 9.522 41.4739 9.45L40.5199 9.36C39.5239 9.252 38.7319 8.958 38.1439 8.478C37.5679 7.998 37.2799 7.35 37.2799 6.534C37.2799 5.886 37.4419 5.34 37.7659 4.896C38.0899 4.452 38.5339 4.11 39.0979 3.87C39.6739 3.63 40.3339 3.51 41.0779 3.51C42.2299 3.51 43.1599 3.768 43.8679 4.284C44.5759 4.788 44.9419 5.532 44.9659 6.516H43.0399C43.0159 6.144 42.8419 5.832 42.5179 5.58C42.1939 5.328 41.7139 5.202 41.0779 5.202C40.4779 5.202 40.0159 5.322 39.6919 5.562C39.3799 5.802 39.2239 6.108 39.2239 6.48C39.2239 6.816 39.3439 7.08 39.5839 7.272C39.8239 7.464 40.2139 7.59 40.7539 7.65L41.7079 7.74C42.7999 7.86 43.6639 8.166 44.2999 8.658C44.9479 9.138 45.2719 9.81 45.2719 10.674C45.2719 11.298 45.0979 11.844 44.7499 12.312C44.4019 12.78 43.9159 13.146 43.2919 13.41C42.6799 13.662 41.9659 13.788 41.1499 13.788ZM47.5753 13.5V0.36H49.6813V8.118H49.2493C49.2493 7.158 49.3693 6.336 49.6093 5.652C49.8613 4.956 50.2393 4.428 50.7433 4.068C51.2593 3.696 51.9073 3.51 52.6873 3.51H52.7773C53.9173 3.51 54.7753 3.894 55.3513 4.662C55.9393 5.43 56.2333 6.534 56.2333 7.974V13.5H54.1273V7.668C54.1273 6.972 53.9233 6.426 53.5153 6.03C53.1193 5.622 52.6033 5.418 51.9673 5.418C51.2833 5.418 50.7313 5.646 50.3113 6.102C49.8913 6.558 49.6813 7.158 49.6813 7.902V13.5H47.5753ZM59.6273 13.5V3.798H61.7333V13.5H59.6273ZM58.2053 5.418V3.798H61.7333V5.418H58.2053ZM60.3113 2.448C59.8793 2.448 59.5553 2.334 59.3393 2.106C59.1353 1.878 59.0333 1.584 59.0333 1.224C59.0333 0.875999 59.1353 0.588 59.3393 0.36C59.5553 0.119999 59.8793 -1.07288e-06 60.3113 -1.07288e-06C60.7553 -1.07288e-06 61.0793 0.119999 61.2833 0.36C61.4993 0.588 61.6073 0.875999 61.6073 1.224C61.6073 1.584 61.4993 1.878 61.2833 2.106C61.0793 2.334 60.7553 2.448 60.3113 2.448ZM64.8722 13.5V3.798H66.5462V7.956H66.3482C66.3482 6.996 66.4742 6.186 66.7262 5.526C66.9902 4.866 67.3862 4.368 67.9142 4.032C68.4422 3.684 69.0962 3.51 69.8762 3.51H69.9662C71.1662 3.51 72.0602 3.888 72.6482 4.644C73.2362 5.4 73.5302 6.504 73.5302 7.956V13.5H71.4242V7.668C71.4242 6.996 71.2322 6.456 70.8482 6.048C70.4642 5.628 69.9362 5.418 69.2642 5.418C68.5802 5.418 68.0282 5.634 67.6082 6.066C67.1882 6.486 66.9782 7.05 66.9782 7.758V13.5H64.8722ZM80.6862 13.824C79.8462 13.824 79.1142 13.68 78.4902 13.392C77.8662 13.104 77.3562 12.726 76.9602 12.258C76.5642 11.778 76.2642 11.244 76.0602 10.656C75.8682 10.056 75.7722 9.444 75.7722 8.82V8.478C75.7722 7.842 75.8682 7.23 76.0602 6.642C76.2642 6.042 76.5642 5.508 76.9602 5.04C77.3562 4.56 77.8542 4.182 78.4542 3.906C79.0662 3.618 79.7742 3.474 80.5782 3.474C81.6222 3.474 82.4922 3.702 83.1882 4.158C83.8842 4.614 84.4062 5.208 84.7542 5.94C85.1022 6.66 85.2762 7.44 85.2762 8.28V9.126H76.6722V7.704H83.8542L83.2782 8.424C83.2782 7.776 83.1762 7.218 82.9722 6.75C82.7682 6.27 82.4682 5.904 82.0722 5.652C81.6762 5.388 81.1782 5.256 80.5782 5.256C79.9542 5.256 79.4322 5.4 79.0122 5.688C78.5922 5.976 78.2802 6.372 78.0762 6.876C77.8722 7.38 77.7702 7.974 77.7702 8.658C77.7702 9.306 77.8722 9.888 78.0762 10.404C78.2802 10.908 78.5982 11.31 79.0302 11.61C79.4622 11.898 80.0142 12.042 80.6862 12.042C81.3582 12.042 81.9102 11.898 82.3422 11.61C82.7742 11.31 83.0382 10.962 83.1342 10.566H85.0962C84.9642 11.226 84.6942 11.802 84.2862 12.294C83.8902 12.786 83.3862 13.164 82.7742 13.428C82.1622 13.692 81.4662 13.824 80.6862 13.824ZM57.0821 27.68C56.2661 27.68 55.6381 27.504 55.1981 27.152C54.7581 26.792 54.5341 26.312 54.5261 25.712H55.3661C55.3821 26.016 55.5181 26.292 55.7741 26.54C56.0381 26.788 56.4741 26.912 57.0821 26.912C57.6501 26.912 58.0741 26.796 58.3541 26.564C58.6421 26.324 58.7861 26.036 58.7861 25.7C58.7861 25.388 58.6661 25.148 58.4261 24.98C58.1941 24.804 57.8541 24.692 57.4061 24.644L56.6861 24.572C56.1101 24.508 55.6421 24.332 55.2821 24.044C54.9301 23.748 54.7541 23.344 54.7541 22.832C54.7541 22.456 54.8501 22.128 55.0421 21.848C55.2341 21.568 55.5021 21.352 55.8461 21.2C56.1981 21.04 56.6101 20.96 57.0821 20.96C57.7621 20.96 58.3141 21.12 58.7381 21.44C59.1701 21.76 59.3901 22.216 59.3981 22.808H58.5581C58.5501 22.504 58.4221 22.248 58.1741 22.04C57.9261 21.832 57.5621 21.728 57.0821 21.728C56.5861 21.728 56.2141 21.836 55.9661 22.052C55.7261 22.268 55.6061 22.532 55.6061 22.844C55.6061 23.108 55.6981 23.328 55.8821 23.504C56.0661 23.672 56.3541 23.776 56.7461 23.816L57.4661 23.888C58.1061 23.96 58.6261 24.144 59.0261 24.44C59.4341 24.736 59.6381 25.16 59.6381 25.712C59.6381 26.088 59.5301 26.428 59.3141 26.732C59.1061 27.028 58.8101 27.26 58.4261 27.428C58.0421 27.596 57.5941 27.68 57.0821 27.68ZM61.4296 27.5V21.14H62.1496V23.816H62.0056C62.0056 23.232 62.0856 22.728 62.2456 22.304C62.4136 21.88 62.6616 21.552 62.9896 21.32C63.3176 21.08 63.7336 20.96 64.2376 20.96H64.2736C64.7776 20.96 65.1936 21.076 65.5216 21.308C65.8496 21.54 66.0936 21.868 66.2536 22.292C66.4136 22.716 66.4936 23.224 66.4936 23.816H66.2056C66.2056 23.232 66.2856 22.728 66.4456 22.304C66.6136 21.88 66.8616 21.552 67.1896 21.32C67.5256 21.08 67.9456 20.96 68.4496 20.96H68.4856C68.9896 20.96 69.4056 21.076 69.7336 21.308C70.0696 21.54 70.3176 21.868 70.4776 22.292C70.6456 22.716 70.7296 23.224 70.7296 23.816V27.5H69.8296V23.612C69.8296 23.052 69.6936 22.608 69.4216 22.28C69.1496 21.952 68.7576 21.788 68.2456 21.788C67.7176 21.788 67.2976 21.96 66.9856 22.304C66.6816 22.64 66.5296 23.096 66.5296 23.672V27.5H65.6296V23.612C65.6296 23.052 65.4936 22.608 65.2216 22.28C64.9496 21.952 64.5576 21.788 64.0456 21.788C63.5176 21.788 63.0976 21.96 62.7856 22.304C62.4816 22.64 62.3296 23.096 62.3296 23.672V27.5H61.4296ZM73.3086 27.5V21.152H74.1966V27.5H73.3086ZM72.2886 21.872V21.152H74.1966V21.872H72.2886ZM73.5006 19.976C73.2846 19.976 73.1206 19.92 73.0086 19.808C72.9046 19.688 72.8526 19.54 72.8526 19.364C72.8526 19.188 72.9046 19.044 73.0086 18.932C73.1206 18.812 73.2846 18.752 73.5006 18.752C73.7166 18.752 73.8766 18.812 73.9806 18.932C74.0846 19.044 74.1366 19.188 74.1366 19.364C74.1366 19.54 74.0846 19.688 73.9806 19.808C73.8766 19.92 73.7166 19.976 73.5006 19.976ZM76.6185 27.5V18.74H77.5185V27.5H76.6185ZM75.6945 19.472V18.74H77.5185V19.472H75.6945ZM82.5035 27.704C81.9595 27.704 81.4875 27.612 81.0875 27.428C80.6875 27.236 80.3595 26.984 80.1035 26.672C79.8475 26.352 79.6555 25.996 79.5275 25.604C79.4075 25.212 79.3475 24.808 79.3475 24.392V24.224C79.3475 23.816 79.4075 23.416 79.5275 23.024C79.6555 22.632 79.8475 22.28 80.1035 21.968C80.3595 21.656 80.6795 21.408 81.0635 21.224C81.4555 21.032 81.9115 20.936 82.4315 20.936C83.0955 20.936 83.6475 21.084 84.0875 21.38C84.5355 21.676 84.8715 22.056 85.0955 22.52C85.3195 22.976 85.4315 23.468 85.4315 23.996V24.464H79.7555V23.768H84.8075L84.5795 24.116C84.5795 23.644 84.4955 23.232 84.3275 22.88C84.1675 22.52 83.9275 22.24 83.6075 22.04C83.2955 21.832 82.9035 21.728 82.4315 21.728C81.9355 21.728 81.5235 21.844 81.1955 22.076C80.8675 22.308 80.6195 22.616 80.4515 23C80.2915 23.384 80.2115 23.82 80.2115 24.308C80.2115 24.788 80.2915 25.228 80.4515 25.628C80.6195 26.02 80.8715 26.332 81.2075 26.564C81.5515 26.796 81.9835 26.912 82.5035 26.912C83.0555 26.912 83.5035 26.788 83.8475 26.54C84.1915 26.284 84.4035 25.984 84.4835 25.64H85.3235C85.2435 26.064 85.0755 26.432 84.8195 26.744C84.5635 27.048 84.2395 27.284 83.8475 27.452C83.4555 27.62 83.0075 27.704 82.5035 27.704Z" fill="white"/>
</svg>
